# xmcd CD database file
#
# Track frame offsets:
#	150
#	18139
#	37463
#	56092
#	74060
#	95010
#	117003
#	135858
#	153071
#
# Disc length: 2193 seconds
#
# Revision: 1
# Processed by: cddbd v1.5.2PL0 Copyright (c) Steve Scherf et al.
# Submitted via: CDex 1.70beta3
#
DISCID=75088f09
DTITLE=Action - ～ACTION! 30th Anniversary～ ACTION! KIT-2014 4
DYEAR=1986
DGENRE=Heavy Metal
TTITLE0=B♂WY 1984
TTITLE1=ROLL OVER JUNK LADY
TTITLE2=CITY FIGHTER
TTITLE3=NOISE
TTITLE4=100,000VOLT
TTITLE5=MAKE YOU CRAZY
TTITLE6=MAKING LOVE
TTITLE7=HEROINE
TTITLE8=M-93Ｒ
EXTD=YEAR: 1986
EXTT0=
EXTT1=
EXTT2=
EXTT3=
EXTT4=
EXTT5=
EXTT6=
EXTT7=
EXTT8=
PLAYORDER=
